<svg width="115" height="102" viewBox="0 0 115 102" fill="none" xmlns="http://www.w3.org/2000/svg">
<g clip-path="url(#clip0_147_422)">
<path d="M34 73.125H14C11.79 73.125 10.02 74.3556 10.02 75.875L10 97.875L24 93.75L38 97.875V75.875C38 74.3556 36.21 73.125 34 73.125Z" fill="#146CCF" fill-opacity="0.6"/>
</g>
<g clip-path="url(#clip1_147_422)">
<path d="M101 73.125H81C78.79 73.125 77.02 74.3556 77.02 75.875L77 97.875L91 93.75L105 97.875V75.875C105 74.3556 103.21 73.125 101 73.125Z" fill="#DEAAE7"/>
</g>
<path d="M22 69L19.535 66.9935C10.78 59.8599 5 55.1526 5 49.3924C5 44.685 9.1055 41 14.35 41C17.308 41 20.147 42.236 22 44.1815C23.853 42.236 26.692 41 29.65 41C34.8945 41 39 44.685 39 49.3924C39 55.1526 33.22 59.8599 24.465 66.9935L22 69Z" fill="#CF1111" fill-opacity="0.6"/>
<path d="M42.1667 69.25H72.625V58.5H42.1667V69.25ZM42.1667 45.9583V56.7083H72.625V45.9583H42.1667Z" fill="#164B28" fill-opacity="0.6"/>
<path d="M85.1818 52.2727C85.1818 51.0655 84.2073 50.0909 83 50.0909C81.7927 50.0909 80.8182 51.0655 80.8182 52.2727C80.8182 53.48 81.7927 54.4545 83 54.4545C84.2073 54.4545 85.1818 53.48 85.1818 52.2727ZM95.3636 45C95.3636 43.7927 94.3891 42.8182 93.1818 42.8182H88.8182C87.6109 42.8182 86.6364 43.7927 86.6364 45C86.6364 46.2073 87.6109 47.1818 88.8182 47.1818H93.1818C94.3891 47.1818 95.3636 46.2073 95.3636 45ZM85.9091 57.3636C84.7018 57.3636 83.7273 58.3382 83.7273 59.5455C83.7273 60.7527 84.7018 61.7273 85.9091 61.7273C87.1164 61.7273 88.0909 60.7527 88.0909 59.5455C88.0909 58.3382 87.1164 57.3636 85.9091 57.3636ZM91 37C82.1782 37 75 44.1782 75 53C75 61.8218 82.1782 69 91 69C99.8218 69 107 61.8218 107 53C107 44.1782 99.8218 37 91 37ZM91 66.0909C83.7782 66.0909 77.9091 60.2145 77.9091 53C77.9091 45.7855 83.7782 39.9091 91 39.9091C98.2218 39.9091 104.091 45.7855 104.091 53C104.091 60.2145 98.2218 66.0909 91 66.0909ZM99 50.0909C97.7927 50.0909 96.8182 51.0655 96.8182 52.2727C96.8182 53.48 97.7927 54.4545 99 54.4545C100.207 54.4545 101.182 53.48 101.182 52.2727C101.182 51.0655 100.207 50.0909 99 50.0909ZM96.0909 57.3636C94.8836 57.3636 93.9091 58.3382 93.9091 59.5455C93.9091 60.7527 94.8836 61.7273 96.0909 61.7273C97.2982 61.7273 98.2727 60.7527 98.2727 59.5455C98.2727 58.3382 97.2982 57.3636 96.0909 57.3636Z" fill="#A81919" fill-opacity="0.6"/>
<g clip-path="url(#clip2_147_422)">
<path d="M52.09 24C49.95 22.57 47.59 21.45 45.04 20.78C47.59 21.45 49.95 22.57 52.09 24ZM72.96 20.78C70.38 21.46 67.99 22.6 65.82 24.05C67.98 22.6 70.37 21.46 72.96 20.78Z" fill="#607D8B"/>
<path d="M65.99 17.27C65.62 11.69 63.36 6.24 59.12 2C54.84 6.28 52.48 11.72 52.02 17.27C54.58 18.64 56.95 20.39 59 22.52C61.05 20.39 63.42 18.63 65.99 17.27ZM52.99 22.57C52.71 22.36 52.39 22.19 52.1 22C52.39 22.19 52.7 22.36 52.99 22.57ZM65.82 22.05C65.56 22.23 65.27 22.38 65.02 22.56C65.27 22.38 65.55 22.23 65.82 22.05ZM59 28.91C54.7 22.34 47.35 18 39 18C39 28.63 45.72 37.65 55.07 40.97C56.34 41.42 57.65 41.76 59 42C60.35 41.77 61.66 41.43 62.93 40.97C72.28 37.65 79 28.63 79 18C70.65 18 63.3 22.34 59 28.91Z" fill="#FFE600" fill-opacity="0.8"/>
</g>
<path d="M72 92C72 82.6112 65.5081 75 57.5 75C49.4919 75 43 82.6112 43 92H72Z" stroke="#968C98" stroke-width="2" stroke-linejoin="round"/>
<defs>
<clipPath id="clip0_147_422">
<rect width="48" height="33" fill="white" transform="translate(0 69)"/>
</clipPath>
<clipPath id="clip1_147_422">
<rect width="48" height="33" fill="white" transform="translate(67 69)"/>
</clipPath>
<clipPath id="clip2_147_422">
<rect width="48" height="48" fill="white" transform="translate(35)"/>
</clipPath>
</defs>
</svg>
